<svg xmlns="http://www.w3.org/2000/svg" width="135" height="150" viewBox="0 0 135 150"><rect width="100%" height="100%" fill="#DDDDDD"/><path fill="#999999" d="M33.195 79.84h2.34v1.67h-7.2v-1.67h2.64v-7.58q0-.45.03-.93l-1.88 1.57q-.16.12-.32.15-.15.04-.29.01-.14-.03-.25-.1-.11-.06-.16-.14l-.7-.97 3.96-3.37h1.83v11.36Zm5.61-7.51-1.17-.21q.13-.93.52-1.64.39-.71.97-1.18t1.33-.71q.75-.24 1.62-.24.9 0 1.62.26.72.25 1.24.71.51.45.78 1.07.28.61.28 1.32 0 .62-.14 1.09-.14.47-.4.83-.26.35-.65.59t-.87.4q1.17.37 1.74 1.13.58.76.58 1.9 0 .97-.36 1.72-.36.74-.97 1.25t-1.42.77q-.8.26-1.71.26-.98 0-1.71-.22-.72-.23-1.26-.67-.54-.44-.92-1.08-.38-.64-.65-1.47l.98-.41q.39-.16.73-.08.33.07.49.36.16.32.35.62.2.31.47.55.27.23.63.38t.87.15q.56 0 .99-.18.42-.19.7-.48.29-.3.43-.67.14-.36.14-.73 0-.47-.1-.85t-.42-.65q-.31-.27-.9-.43-.59-.15-1.58-.15v-1.58q.82-.01 1.36-.16.54-.14.86-.4.32-.25.44-.61.13-.36.13-.79 0-.92-.51-1.4-.52-.48-1.37-.48-.4 0-.73.12-.33.11-.6.31-.26.2-.44.47-.18.27-.27.6-.16.41-.4.55-.25.13-.7.06Zm12.41-1.82-.46 2.71q.43-.09.83-.13.39-.04.76-.04 1.03 0 1.81.31.79.3 1.32.84t.8 1.27q.27.72.27 1.56 0 1.03-.37 1.89-.36.85-1.01 1.46t-1.53.94q-.89.33-1.93.33-.62 0-1.17-.12-.54-.13-1.03-.34-.48-.21-.89-.49-.41-.27-.73-.58l.68-.94q.22-.31.57-.31.23 0 .46.15.23.14.53.31.31.17.72.32.41.14.98.14.61 0 1.08-.2.47-.2.78-.55.31-.36.47-.85.16-.49.16-1.06 0-1.07-.62-1.66-.62-.6-1.82-.6-.93 0-1.9.34l-1.39-.4 1.08-6.31h6.43v.94q0 .48-.3.77-.3.3-1.01.3h-3.57Zm20.17 8.02-1.18 1.16-3.05-3.05-3.08 3.07-1.18-1.16 3.08-3.09-2.93-2.93 1.17-1.17 2.93 2.93 2.92-2.91 1.18 1.17-2.92 2.92 3.06 3.06Zm12.32 1.31h2.34v1.67h-7.2v-1.67h2.64v-7.58q0-.45.02-.93l-1.87 1.57q-.16.12-.32.15-.16.04-.3.01-.13-.03-.24-.1-.11-.06-.16-.14l-.71-.97 3.97-3.37h1.83v11.36Zm7.58-9.33-.46 2.71q.43-.09.83-.13.39-.04.76-.04 1.03 0 1.81.31.78.3 1.31.84.54.54.81 1.27.27.72.27 1.56 0 1.03-.37 1.89-.36.85-1.01 1.46t-1.54.94q-.88.33-1.93.33-.61 0-1.16-.12-.55-.13-1.03-.34-.48-.21-.89-.49-.41-.27-.73-.58l.68-.94q.22-.31.57-.31.22 0 .46.15.23.14.53.31.3.17.71.32.41.14.99.14.61 0 1.08-.2.47-.2.78-.55.31-.36.47-.85.15-.49.15-1.06 0-1.07-.61-1.66-.62-.6-1.83-.6-.92 0-1.89.34l-1.39-.4 1.08-6.31h6.43v.94q0 .48-.3.77-.3.3-1.01.3h-3.57Zm16.31 4.49q0 1.7-.36 2.96-.36 1.25-1.01 2.07-.64.82-1.52 1.22t-1.89.4q-1.02 0-1.89-.4-.87-.4-1.51-1.22t-1-2.07q-.36-1.26-.36-2.96 0-1.71.36-2.96t1-2.07q.64-.82 1.51-1.22t1.89-.4q1.01 0 1.89.4.88.4 1.52 1.22.65.82 1.01 2.07t.36 2.96Zm-2.29 0q0-1.41-.21-2.34-.2-.92-.55-1.47-.35-.55-.8-.77-.45-.22-.93-.22-.48 0-.93.22-.44.22-.78.77-.35.55-.55 1.47-.2.93-.2 2.34 0 1.42.2 2.34.2.93.55 1.48.34.55.78.77.45.22.93.22.48 0 .93-.22.45-.22.8-.77.35-.55.55-1.48.21-.92.21-2.34Z"/></svg>