<svg xmlns="http://www.w3.org/2000/svg" width="140" height="150" viewBox="0 0 140 150"><rect width="100%" height="100%" fill="#DDDDDD"/><path fill="#999999" d="M33.795 80.11h2.47v1.76h-7.6v-1.76h2.78V72.1q0-.47.03-.97l-1.98 1.65q-.17.13-.34.16-.16.04-.31.01t-.26-.1q-.11-.07-.17-.16l-.74-1.01 4.19-3.57h1.93v12Zm6.24-3.42h4.18V72.2q0-.64.08-1.41l-4.26 5.9Zm6.22 0h1.73v1.36q0 .19-.13.33-.12.14-.35.14h-1.25v3.35h-2.04v-3.35h-5.8q-.24 0-.42-.15t-.22-.37l-.25-1.18 6.51-8.7h2.22v8.57ZM59.015 75q0 1.8-.39 3.12-.38 1.33-1.06 2.19-.68.87-1.61 1.29-.92.42-2 .42-1.07 0-1.99-.42-.91-.42-1.59-1.29-.67-.86-1.05-2.19-.38-1.32-.38-3.12t.38-3.12q.38-1.32 1.05-2.19.68-.86 1.59-1.29.92-.42 1.99-.42 1.08 0 2 .42.93.43 1.61 1.29.68.87 1.06 2.19.39 1.32.39 3.12Zm-2.42 0q0-1.49-.22-2.47-.22-.98-.59-1.56-.36-.58-.84-.81-.47-.23-.99-.23-.5 0-.97.23t-.83.81q-.36.58-.58 1.56-.21.98-.21 2.47 0 1.49.21 2.47.22.98.58 1.56.36.58.83.81.47.23.97.23.52 0 .99-.23.48-.23.84-.81.37-.58.59-1.56.22-.98.22-2.47Zm17.5 3.73-1.24 1.22-3.22-3.22-3.25 3.24-1.24-1.23 3.24-3.25-3.09-3.1 1.23-1.24 3.1 3.1 3.08-3.08 1.25 1.24-3.09 3.09 3.23 3.23Zm13.01 1.38h2.47v1.76h-7.6v-1.76h2.78V72.1q0-.47.03-.97l-1.97 1.65q-.18.13-.34.16-.17.04-.32.01-.14-.03-.26-.1-.11-.07-.17-.16l-.74-1.01 4.19-3.57h1.93v12Zm8-9.85-.49 2.86q.46-.09.88-.14.42-.04.81-.04 1.08 0 1.9.32.83.33 1.39.9.56.57.85 1.33.28.77.28 1.65 0 1.09-.38 1.99-.39.91-1.07 1.55-.69.64-1.62.99-.94.35-2.04.35-.64 0-1.22-.13t-1.09-.36q-.51-.22-.94-.51-.43-.29-.78-.61l.73-1q.22-.32.59-.32.24 0 .49.15t.56.33q.32.18.75.33.44.16 1.04.16.65 0 1.14-.21.5-.21.83-.59.32-.37.49-.89.17-.52.17-1.13 0-1.12-.65-1.75-.66-.63-1.93-.63-.98 0-2 .36l-1.47-.42 1.14-6.67h6.79v1q0 .5-.32.82-.31.31-1.06.31h-3.77Zm17.22 4.74q0 1.8-.38 3.12-.39 1.33-1.07 2.19-.68.87-1.6 1.29-.93.42-2 .42-1.08 0-1.99-.42-.92-.42-1.59-1.29-.68-.86-1.06-2.19-.38-1.32-.38-3.12t.38-3.12q.38-1.32 1.06-2.19.67-.86 1.59-1.29.91-.42 1.99-.42 1.07 0 2 .42.92.43 1.6 1.29.68.87 1.07 2.19.38 1.32.38 3.12Zm-2.42 0q0-1.49-.22-2.47-.22-.98-.58-1.56-.37-.58-.84-.81-.48-.23-.99-.23t-.98.23q-.47.23-.83.81-.36.58-.57 1.56-.22.98-.22 2.47 0 1.49.22 2.47.21.98.57 1.56.36.58.83.81.47.23.98.23t.99-.23q.47-.23.84-.81.36-.58.58-1.56.22-.98.22-2.47Z"/></svg>