<svg xmlns="http://www.w3.org/2000/svg" width="420" height="300" viewBox="0 0 420 300"><rect width="100%" height="100%" fill="#DDDDDD"/><path fill="#999999" d="M90.915 154.985h12.32v-13.24q0-1.88.25-4.15l-12.57 17.39Zm18.34 0h5.09v4q0 .56-.36.97-.36.41-1.04.41h-3.69v9.88h-6.02v-9.88h-17.08q-.7 0-1.23-.44-.54-.43-.68-1.08l-.72-3.5 19.18-25.62h6.55v25.26Zm23.6 8.82h10.39q1.12 0 1.78.63.66.63.66 1.67v4.14h-27.78v-2.3q0-.7.29-1.47.3-.77.94-1.38l12.29-12.32q1.54-1.57 2.76-3 1.22-1.43 2.03-2.83.81-1.4 1.25-2.84.43-1.44.43-3.04 0-1.45-.42-2.56-.42-1.1-1.19-1.86t-1.85-1.13q-1.07-.38-2.42-.38-1.23 0-2.28.35-1.05.35-1.86.98t-1.37 1.47q-.56.84-.84 1.85-.48 1.28-1.24 1.7-.75.42-2.18.2l-3.64-.64q.42-2.92 1.62-5.11 1.21-2.2 3.01-3.67 1.81-1.47 4.15-2.21 2.34-.75 5.02-.75 2.8 0 5.13.83 2.32.83 3.97 2.34 1.66 1.51 2.58 3.64.92 2.13.92 4.73 0 2.24-.65 4.14-.66 1.91-1.77 3.64-1.1 1.74-2.59 3.36-1.48 1.63-3.11 3.31l-9.12 9.32q1.31-.39 2.61-.6 1.31-.21 2.48-.21Zm46.48-13.8q0 5.29-1.13 9.19-1.14 3.91-3.14 6.46t-4.73 3.79q-2.73 1.25-5.89 1.25-3.17 0-5.87-1.25-2.7-1.24-4.69-3.79-1.99-2.55-3.11-6.46-1.12-3.9-1.12-9.19 0-5.32 1.12-9.22 1.12-3.89 3.11-6.44 1.99-2.54 4.69-3.79t5.87-1.25q3.16 0 5.89 1.25 2.73 1.25 4.73 3.79 2 2.55 3.14 6.44 1.13 3.9 1.13 9.22Zm-7.14 0q0-4.4-.64-7.28-.65-2.89-1.72-4.6-1.08-1.7-2.48-2.39-1.4-.69-2.91-.69-1.49 0-2.87.69-1.39.69-2.45 2.39-1.07 1.71-1.7 4.6-.63 2.88-.63 7.28 0 4.39.63 7.28.63 2.88 1.7 4.59 1.06 1.71 2.45 2.39 1.38.69 2.87.69 1.51 0 2.91-.69 1.4-.68 2.48-2.39 1.07-1.71 1.72-4.59.64-2.89.64-7.28Zm51.61 10.97-3.67 3.61-9.49-9.49-9.58 9.55-3.67-3.61 9.58-9.61-9.13-9.12 3.64-3.64 9.13 9.12 9.07-9.07 3.7 3.64-9.1 9.1 9.52 9.52Zm23.29-19.29-3.64-.64q.42-2.92 1.63-5.11 1.2-2.2 3.01-3.67 1.8-1.47 4.14-2.21 2.34-.75 5.03-.75 2.8 0 5.05.8t3.85 2.21q1.6 1.42 2.45 3.32.85 1.91.85 4.12 0 1.93-.43 3.4t-1.25 2.56q-.81 1.09-2.01 1.85-1.21.76-2.72 1.26 3.64 1.15 5.43 3.5 1.8 2.35 1.8 5.91 0 3.02-1.12 5.35-1.12 2.32-3.03 3.9-1.9 1.58-4.41 2.4-2.5.81-5.3.81-3.06 0-5.32-.7-2.27-.7-3.95-2.07-1.68-1.38-2.86-3.36-1.17-1.99-2.01-4.6l3.05-1.26q1.2-.5 2.25-.26t1.53 1.13q.5.98 1.1 1.93.61.96 1.45 1.7t1.97 1.2q1.13.46 2.7.46 1.77 0 3.08-.57 1.32-.57 2.2-1.5.88-.92 1.32-2.06.43-1.13.43-2.28 0-1.45-.31-2.64-.31-1.19-1.29-2.03-.98-.84-2.81-1.32-1.83-.48-4.91-.48v-4.92q2.54-.03 4.22-.48 1.68-.45 2.68-1.25.99-.79 1.38-1.91.4-1.12.4-2.47 0-2.85-1.6-4.34-1.6-1.48-4.26-1.48-1.23 0-2.26.35-1.04.35-1.87.98-.82.63-1.38 1.47-.56.84-.84 1.85-.48 1.28-1.25 1.7-.77.42-2.17.2Zm56.9 8.32q0 5.29-1.14 9.19-1.13 3.91-3.13 6.46t-4.73 3.79q-2.73 1.25-5.9 1.25-3.16 0-5.86-1.25-2.71-1.24-4.69-3.79-1.99-2.55-3.11-6.46-1.12-3.9-1.12-9.19 0-5.32 1.12-9.22 1.12-3.89 3.11-6.44 1.98-2.54 4.69-3.79 2.7-1.25 5.86-1.25 3.17 0 5.9 1.25 2.73 1.25 4.73 3.79 2 2.55 3.13 6.44 1.14 3.9 1.14 9.22Zm-7.14 0q0-4.4-.65-7.28-.64-2.89-1.72-4.6-1.08-1.7-2.48-2.39-1.4-.69-2.91-.69-1.48 0-2.87.69-1.38.69-2.45 2.39-1.06 1.71-1.69 4.6-.63 2.88-.63 7.28 0 4.39.63 7.28.63 2.88 1.69 4.59 1.07 1.71 2.45 2.39 1.39.69 2.87.69 1.51 0 2.91-.69 1.4-.68 2.48-2.39t1.72-4.59q.65-2.89.65-7.28Zm39.62 0q0 5.29-1.14 9.19-1.13 3.91-3.13 6.46t-4.73 3.79q-2.73 1.25-5.9 1.25-3.16 0-5.86-1.25-2.71-1.24-4.69-3.79-1.99-2.55-3.11-6.46-1.12-3.9-1.12-9.19 0-5.32 1.12-9.22 1.12-3.89 3.11-6.44 1.98-2.54 4.69-3.79 2.7-1.25 5.86-1.25 3.17 0 5.9 1.25 2.73 1.25 4.73 3.79 2 2.55 3.13 6.44 1.14 3.9 1.14 9.22Zm-7.14 0q0-4.4-.65-7.28-.64-2.89-1.72-4.6-1.08-1.7-2.48-2.39-1.4-.69-2.91-.69-1.48 0-2.87.69-1.38.69-2.45 2.39-1.06 1.71-1.69 4.6-.63 2.88-.63 7.28 0 4.39.63 7.28.63 2.88 1.69 4.59 1.07 1.71 2.45 2.39 1.39.69 2.87.69 1.51 0 2.91-.69 1.4-.68 2.48-2.39t1.72-4.59q.65-2.89.65-7.28Z"/></svg>