<svg xmlns="http://www.w3.org/2000/svg" width="440" height="300" viewBox="0 0 440 300"><rect width="100%" height="100%" fill="#DDDDDD"/><path fill="#999999" d="M94.54 155.25h12.98V141.3q0-1.98.26-4.37l-13.24 18.32Zm19.32 0h5.37v4.22q0 .59-.38 1.02-.39.43-1.1.43h-3.89v10.41h-6.34v-10.41h-18q-.74 0-1.3-.46t-.7-1.14l-.77-3.68 20.21-27h6.9v26.61Zm14.9 0h12.98V141.3q0-1.98.26-4.37l-13.24 18.32Zm19.32 0h5.37v4.22q0 .59-.38 1.02-.39.43-1.1.43h-3.89v10.41h-6.34v-10.41h-18q-.74 0-1.3-.46t-.7-1.14l-.77-3.68 20.21-27h6.9v26.61ZM187.7 150q0 5.58-1.2 9.69-1.19 4.12-3.3 6.8-2.11 2.69-4.99 4-2.87 1.31-6.21 1.31-3.33 0-6.18-1.31-2.84-1.31-4.94-4-2.09-2.68-3.27-6.8-1.18-4.11-1.18-9.69 0-5.6 1.18-9.7t3.27-6.79q2.1-2.68 4.94-4 2.85-1.31 6.18-1.31 3.34 0 6.21 1.31 2.88 1.32 4.99 4 2.11 2.69 3.3 6.79 1.2 4.1 1.2 9.7Zm-7.52 0q0-4.63-.68-7.67t-1.82-4.84q-1.13-1.8-2.61-2.52-1.47-.72-3.07-.72-1.56 0-3.02.72t-2.58 2.52q-1.12 1.8-1.79 4.84-.66 3.04-.66 7.67t.66 7.67q.67 3.04 1.79 4.84 1.12 1.8 2.58 2.52t3.02.72q1.6 0 3.07-.72 1.48-.72 2.61-2.52 1.14-1.8 1.82-4.84.68-3.04.68-7.67Zm54.36 11.57-3.86 3.8-10-10-10.09 10.06-3.86-3.81 10.08-10.11-9.61-9.62 3.83-3.84 9.62 9.62 9.56-9.56 3.89 3.84-9.59 9.59 10.03 10.03Zm24.55-20.33-3.84-.68q.45-3.07 1.71-5.38 1.27-2.32 3.18-3.87 1.9-1.55 4.36-2.33 2.46-.78 5.3-.78 2.95 0 5.32.84 2.38.84 4.06 2.33 1.68 1.49 2.58 3.5.9 2 .9 4.33 0 2.04-.46 3.59-.46 1.55-1.31 2.7-.86 1.15-2.13 1.94-1.26.8-2.86 1.33 3.84 1.21 5.73 3.69 1.88 2.48 1.88 6.22 0 3.19-1.18 5.64-1.18 2.45-3.18 4.11-2.01 1.67-4.65 2.53-2.64.85-5.59.85-3.21 0-5.6-.74-2.39-.73-4.16-2.18-1.77-1.44-3.01-3.54-1.24-2.09-2.13-4.84l3.22-1.32q1.27-.54 2.37-.28 1.11.25 1.61 1.19.53 1.03 1.17 2.04.63 1 1.52 1.78.88.78 2.08 1.27 1.19.49 2.84.49 1.86 0 3.25-.61 1.38-.6 2.31-1.58.93-.97 1.39-2.17.46-1.19.46-2.4 0-1.53-.33-2.79-.32-1.25-1.35-2.14-1.04-.88-2.97-1.38-1.93-.5-5.18-.5v-5.2q2.69-.03 4.46-.5t2.82-1.31q1.04-.84 1.46-2.02.41-1.18.41-2.6 0-3.01-1.68-4.57-1.68-1.56-4.49-1.56-1.29 0-2.39.37-1.09.36-1.96 1.03-.87.66-1.46 1.55-.59.88-.88 1.94-.5 1.36-1.32 1.8-.81.45-2.28.21Zm59.94 8.76q0 5.58-1.19 9.69-1.2 4.12-3.31 6.8-2.11 2.69-4.98 4-2.88 1.31-6.21 1.31-3.34 0-6.18-1.31-2.85-1.31-4.94-4-2.1-2.68-3.28-6.8-1.18-4.11-1.18-9.69 0-5.6 1.18-9.7t3.28-6.79q2.09-2.68 4.94-4 2.84-1.31 6.18-1.31 3.33 0 6.21 1.31 2.87 1.32 4.98 4 2.11 2.69 3.31 6.79 1.19 4.1 1.19 9.7Zm-7.52 0q0-4.63-.68-7.67t-1.81-4.84q-1.14-1.8-2.61-2.52-1.48-.72-3.07-.72-1.57 0-3.03.72-1.46.72-2.58 2.52t-1.78 4.84q-.67 3.04-.67 7.67t.67 7.67q.66 3.04 1.78 4.84 1.12 1.8 2.58 2.52t3.03.72q1.59 0 3.07-.72 1.47-.72 2.61-2.52 1.13-1.8 1.81-4.84.68-3.04.68-7.67Zm41.74 0q0 5.58-1.19 9.69-1.2 4.12-3.31 6.8-2.11 2.69-4.98 4-2.88 1.31-6.21 1.31-3.34 0-6.18-1.31-2.85-1.31-4.94-4-2.1-2.68-3.28-6.8-1.18-4.11-1.18-9.69 0-5.6 1.18-9.7t3.28-6.79q2.09-2.68 4.94-4 2.84-1.31 6.18-1.31 3.33 0 6.21 1.31 2.87 1.32 4.98 4 2.11 2.69 3.31 6.79 1.19 4.1 1.19 9.7Zm-7.52 0q0-4.63-.68-7.67t-1.81-4.84q-1.14-1.8-2.61-2.52-1.48-.72-3.07-.72-1.57 0-3.03.72-1.46.72-2.58 2.52t-1.78 4.84q-.67 3.04-.67 7.67t.67 7.67q.66 3.04 1.78 4.84 1.12 1.8 2.58 2.52t3.03.72q1.59 0 3.07-.72 1.47-.72 2.61-2.52 1.13-1.8 1.81-4.84.68-3.04.68-7.67Z"/></svg>